<svg xmlns="http://www.w3.org/2000/svg" xmlns:xlink="http://www.w3.org/1999/xlink" version="1.1" x="0px" y="0px" viewBox="0 0 64 80" >
<path d="M24.6,51.6l4-6.6h0.6l-2.6,7.6L24.6,51.6z M37.9,52.6l2-1l-4-6.6h-0.6L37.9,52.6z M44.4,45h-6.2l3.9,6.5  c0.1,0.2,0.2,0.5,0.1,0.8c-0.1,0.3-0.3,0.5-0.5,0.6l-4,2C37.6,55,37.4,55,37.3,55c-0.1,0-0.3,0-0.4-0.1c-0.3-0.1-0.5-0.3-0.6-0.6  L33.2,45h-1.8l-3.2,9.3c-0.1,0.3-0.3,0.5-0.6,0.6C27.5,55,27.3,55,27.2,55c-0.2,0-0.3,0-0.5-0.1l-4-2c-0.2-0.1-0.4-0.3-0.5-0.6  s0-0.6,0.1-0.8l3.9-6.5H20l-3.9,10.5c-0.3,0.8-0.2,1.7,0.2,2.5c0.4,0.8,1.2,1.3,2,1.5c4.6,1,9.2,1.5,13.9,1.5s9.4-0.5,13.9-1.5  c0.9-0.2,1.6-0.7,2-1.5s0.5-1.7,0.2-2.5L44.4,45z M32.6,16.9L37.4,9H27.1L32.6,16.9z M26.4,7h11.4c0.5,0,0.9-0.3,1.2-0.7  c0.3-0.5,0.3-1.1-0.1-1.6C38,3.6,36.6,3,35.2,3h-6c-1.5,0-2.9,0.7-3.9,1.9c-0.4,0.5-0.4,1.1,0,1.6C25.6,6.8,26,7,26.4,7z M44.1,34  l0.1-0.4l5-17.3c0.1-0.2,0.1-0.5,0-0.7c0-0.1-0.1-0.1-0.1-0.2c0,0,0-0.1-0.1-0.1l-0.1-0.1l-0.1-0.1l-7-6.1h-2.1L24.6,34H44.1z   M21.2,37v5c0,0.6,0.4,1,1,1h6v-7h-6C21.6,36,21.2,36.4,21.2,37z M32,43h2.2v-7h-4v7H32z M36.2,36v7h6c0.6,0,1-0.4,1-1v-5  c0-0.6-0.4-1-1-1H36.2z M60.4,41.3l-9.9-22.5l-5,17.4l5.3,10.3c0.4,0.8,1.1,1.3,1.9,1.5c0.3,0.1,0.5,0.1,0.8,0.1  c0.6,0,1.1-0.2,1.6-0.5l4.2-2.6C60.5,44.2,61,42.6,60.4,41.3z M18.7,35.6l-4.8-16.9L3.5,41.3c-0.6,1.4-0.1,3,1.2,3.7l4.2,2.6  c0.5,0.3,1,0.5,1.6,0.5c0.3,0,0.5,0,0.8-0.1c0.8-0.2,1.5-0.8,1.9-1.5L18.7,35.6L18.7,35.6z M20,33L20,33l0.3,1h1.9l9.3-15.3  c-0.1,0-0.1-0.1-0.1-0.1L24.7,9h-2.1l-7,6.2l0,0c-0.1,0.1-0.1,0.1-0.2,0.2l-0.1,0.1c-0.1,0.3-0.1,0.5-0.1,0.8L20,33z"/>
</svg>