<svg xmlns="http://www.w3.org/2000/svg" viewBox="0 0 128 160" x="0px" y="0px"><g><path d="M57.757,28.8a.354.354,0,0,1-.225.147L57.359,29a.249.249,0,0,0-.186.21,2.67,2.67,0,0,1-.745,1.616.81.81,0,0,1-.739.249.248.248,0,0,0-.237.066,4.279,4.279,0,0,0-.3.363c-.047.062-.088.116-.108.139a.324.324,0,0,0-.058.086.244.244,0,0,0-.029.1l-.016.233a.251.251,0,0,0,.116.235.248.248,0,0,0,.133.039.243.243,0,0,0,.128-.036c.353-.21.711-.416,1.073-.625.32-.185.645-.372.974-.566.229-.138.45-.283.663-.427a.251.251,0,0,0,.064-.352.58.58,0,0,1-.115-.261.518.518,0,0,1,.343-.634.536.536,0,0,1,.562.244.259.259,0,0,0,.168.126.253.253,0,0,0,.205-.047,15.159,15.159,0,0,1,1.268-.907.25.25,0,0,0,.092-.323A2.357,2.357,0,0,1,60.526,27a6.956,6.956,0,0,0,.1-1.042.25.25,0,0,0-.464-.131,3.23,3.23,0,0,1-.525.663.626.626,0,0,1-.231.14.25.25,0,0,0-.157.232.321.321,0,0,1-.011.112,2.55,2.55,0,0,1-.474.916,6.757,6.757,0,0,1-.5.534L58.2,28.5a1.051,1.051,0,0,1-.343.237A.236.236,0,0,0,57.757,28.8Z"/><path d="M59.492,17.628a.25.25,0,0,0,.43-.211,10.4,10.4,0,0,1-.161-1.682c0-.342-.748-.6-.756-.6-.37-.117-.549,0-.635.118-.2.279-.01.75.618,1.575A2.7,2.7,0,0,0,59.492,17.628Z"/><path d="M24.205,117.384s.019.067.025.087c.025.477,1.176,1.352,1.458,1.352h.051a1.689,1.689,0,0,0,.9-.255,2.3,2.3,0,0,1,.433-.193c.763-.244,1.513-.558,2.238-.861a.25.25,0,0,0,0-.461c-.71-.3-1.538-.646-2.376-.936a.25.25,0,0,0-.141-.006,10.521,10.521,0,0,0-2.465,1.005A.249.249,0,0,0,24.205,117.384Z"/><path d="M27.52,32.078A22.979,22.979,0,0,0,25.5,36.359a7.75,7.75,0,0,0-.387,2.293.252.252,0,0,0,.072.18.249.249,0,0,0,.178.075c.716,0,1.391,0,2.094.059a36.688,36.688,0,0,1,7.118,1.584,35.8,35.8,0,0,0,7.535,1.631.234.234,0,0,0,.244-.147.253.253,0,0,0-.051-.28,7.681,7.681,0,0,0-1.272-1.068,19.047,19.047,0,0,0-3.865-1.921.533.533,0,0,1-.313-.706.4.4,0,0,1,.543-.268,19.954,19.954,0,0,1,4.865,2.547,4.824,4.824,0,0,1,.822.809,7.844,7.844,0,0,0,.551.592,5.21,5.21,0,0,0,3.445,1.208,5.027,5.027,0,0,0,1.317-.168.25.25,0,0,0,.052-.462c-.24-.127-.486-.243-.733-.36a7.989,7.989,0,0,1-1.392-.772,6.588,6.588,0,0,1-1.972-3.1,12.279,12.279,0,0,0-1.011-2.123.4.4,0,0,1-.04-.42.593.593,0,0,1,.483-.3.476.476,0,0,1,.425.232l.2.3a5.96,5.96,0,0,1,.739,1.35c.071.205.136.43.2.665A3.947,3.947,0,0,0,46.8,40.3l.345.2a14.768,14.768,0,0,0,2.744,1.37.254.254,0,0,0,.21-.024.25.25,0,0,0,.116-.176c.053-.347.123-.648.2-1l.032-.134a.25.25,0,0,0-.064-.23.947.947,0,0,1-.235-.825,1.141,1.141,0,0,1,.568-.81.276.276,0,0,0,.134-.074.248.248,0,0,0,.067-.188,3.135,3.135,0,0,1,.164-1.183A3.016,3.016,0,0,1,52,35.813a.25.25,0,0,0,.082-.287,2.019,2.019,0,0,1,.145-1.224,4.142,4.142,0,0,1,.867-1.495c.011-.007.059-.036.069-.044a.249.249,0,0,0,.09-.139.118.118,0,0,0,.005-.065,4.531,4.531,0,0,1,.976-1.688l.113-.111a4.071,4.071,0,0,1,.732-.618.251.251,0,0,0,.108-.132l.123-.354a2,2,0,0,1,.4-.774,3.259,3.259,0,0,1,.888-.658.246.246,0,0,0,.133-.178c.015-.082.033-.164.054-.251a.255.255,0,0,0,.041-.128c0-.024.007-.082.011-.132a1.738,1.738,0,0,1,.1-.261,2.158,2.158,0,0,1,.19-.351,2.842,2.842,0,0,1,.845-.824.249.249,0,0,0,.1-.288.239.239,0,0,0-.253-.173A7.78,7.78,0,0,0,51.5,29.263,9.381,9.381,0,0,1,48.04,32.9a.479.479,0,0,1-.405.026.623.623,0,0,1-.335-.366.241.241,0,0,0-.266-.164,13.4,13.4,0,0,0-6.091,2.962.355.355,0,0,1-.365.069.581.581,0,0,1-.307-.464.526.526,0,0,1,.213-.5c.765-.564,1.416-1.006,2.05-1.388a.25.25,0,0,0-.045-.449c-.158-.058-.319-.112-.48-.167a6.367,6.367,0,0,1-1.8-.827,4.883,4.883,0,0,0-2.181-.8,6.6,6.6,0,0,1-1.227-.306c-2.079-.8-6.569-1.9-7.074-2.025a.256.256,0,0,0-.229.06,7.471,7.471,0,0,0-1.38,2.312c-.168.374-.328.727-.482,1Zm5.485,3.86a11.81,11.81,0,0,0,.095-1.213v0a5.487,5.487,0,0,1,.746-3.183.475.475,0,0,1,.408-.231.608.608,0,0,1,.326.1.423.423,0,0,1,.145.613,4.825,4.825,0,0,0-.637,2.628c-.009.2-.019.407-.034.618s-.041.429-.069.643a4.945,4.945,0,0,0-.033,1.52c.039.228.093.451.148.674a7.439,7.439,0,0,1,.158.758.537.537,0,0,1-.209.516.58.58,0,0,1-.539.112.344.344,0,0,1-.2-.3,6.961,6.961,0,0,0-.192-.874,4.369,4.369,0,0,1-.2-1.162A10.833,10.833,0,0,1,33.005,35.938ZM30.87,32.512a.392.392,0,0,1,.261-.321.505.505,0,0,1,.146-.021.62.62,0,0,1,.4.155.478.478,0,0,1,.146.481,22.422,22.422,0,0,1-.619,2.2c-.13.406-.259.81-.373,1.212a.482.482,0,0,1-.629.327.45.45,0,0,1-.337-.585v0c.115-.408.245-.816.375-1.225A22.787,22.787,0,0,0,30.87,32.512Zm18.315,5.262a.552.552,0,0,1-.784.091c-.129-.108-.251-.223-.372-.339a5.935,5.935,0,0,0-.582-.506,4.482,4.482,0,0,1-.76-.661,3.945,3.945,0,0,1-1.079-1.685.462.462,0,0,1,.133-.469.614.614,0,0,1,.408-.16.513.513,0,0,1,.142.02.4.4,0,0,1,.275.324h0a3.631,3.631,0,0,0,1.258,1.676l.127.109c.394.341.793.685,1.186,1.017A.38.38,0,0,1,49.185,37.774Z"/><path d="M59.429,13.429a.249.249,0,0,0,.243-.193A10.54,10.54,0,0,1,63.9,6.983a4.2,4.2,0,0,1,3.362-.531h0a7.367,7.367,0,0,1,2.5,1.18.25.25,0,0,0,.352-.347,4.906,4.906,0,0,0-4.3-1.991c-2.653.036-4.586.972-5.745,2.784-.829,1.306-.953,3.757-.953,5.1C59.119,13.317,59.291,13.429,59.429,13.429Z"/><path d="M23.4,29.847h0c.084.038.177.074.273.112.529.21.876.376.876.761,0,.061,0,.141-.006.233-.029.763-.022,1.534.384,1.836a.588.588,0,0,0,.361.117.84.84,0,0,0,.273-.049.421.421,0,0,1,.176-.022.247.247,0,0,0,.251-.149,23.913,23.913,0,0,1,1.77-3.515.251.251,0,0,0-.03-.312,3.8,3.8,0,0,0-1.142-.837,2.012,2.012,0,0,0-1.932.008c-.167.067-1.632.667-1.647,1.3A.547.547,0,0,0,23.4,29.847Z"/><path d="M70.531,25.362l-.212-.313a.219.219,0,0,0-.209-.108.251.251,0,0,0-.206.114,4.811,4.811,0,0,1-1.865,1.662c-.4.184-.8.4-1.2.61a13.253,13.253,0,0,1-2.1.969c-.689.23-1.417.417-2.12.6l-.276.071a.256.256,0,0,0-.135.088.443.443,0,0,1-.216.159,7.528,7.528,0,0,0-1.986,1.153.25.25,0,0,0-.027.374l.052.05a1,1,0,0,0,.351.249c.04.02.08.039.118.062a.479.479,0,0,1,.155.69.447.447,0,0,1-.647.178c-.161-.1-.3-.2-.445-.3l-.094-.066a.246.246,0,0,0-.171-.044.462.462,0,0,1-.367-.1.251.251,0,0,0-.319-.014,8.487,8.487,0,0,1-.766.517.254.254,0,0,0-.12.2.251.251,0,0,0,.1.211.877.877,0,0,1,.16.139,2.494,2.494,0,0,1,.436.887.43.43,0,0,1-.1.443A.593.593,0,0,1,57.78,34a.429.429,0,0,1-.313-.328,1.589,1.589,0,0,0-.6-.821l-.118-.1a.251.251,0,0,0-.288-.031A17.531,17.531,0,0,0,53.837,34.5a.249.249,0,0,0-.088.155,2.331,2.331,0,0,1-.328.978.829.829,0,0,1-.342.265.251.251,0,0,0-.142.226.432.432,0,0,1-.045.2.248.248,0,0,0-.021.185.562.562,0,0,1,.022.188,3.18,3.18,0,0,1-.146.636c-.046.154-.093.31-.127.474l-.015.071a2.653,2.653,0,0,1-.272.835,1.337,1.337,0,0,1-.34.359.25.25,0,0,0-.1.185A1.709,1.709,0,0,1,51.5,40.27a.249.249,0,0,0-.062.223.516.516,0,0,1,0,.244.322.322,0,0,1-.018.071.253.253,0,0,0,.023.225.481.481,0,0,1,.081.239c0,.151-.008.317-.022.5a.249.249,0,0,0,.123.236.246.246,0,0,0,.219.016.254.254,0,0,0,.095-.052,1.193,1.193,0,0,1,.348-.188.488.488,0,0,1,.534.247.262.262,0,0,0,.08.079.517.517,0,0,1,.183.176A9.346,9.346,0,0,1,54.254,46.6c.042.4.084.8.139,1.207a10.027,10.027,0,0,0,.316,1.323,6.3,6.3,0,0,1,.373,2.175,24.548,24.548,0,0,0-.192,3.208c0,.008-.014.054-.015.062a.247.247,0,0,0,.02.156.445.445,0,0,1-.019.425,2.374,2.374,0,0,1-.906.917,3.6,3.6,0,0,0-1.394,1.73c-.11.25-.206.517-.3.787a4.476,4.476,0,0,1-.855,1.657.251.251,0,0,0-.069.2c.076.751.128,1.512.18,2.27a36.581,36.581,0,0,0,.437,4.1c.569,3.087.732,6.888-.687,7.441a.505.505,0,0,1-.546-.253,1.278,1.278,0,0,0-.085-.127.245.245,0,0,0-.227-.094.249.249,0,0,0-.2.146,2.394,2.394,0,0,1-.844,1.146.572.572,0,0,1-.493.085,1.1,1.1,0,0,1-.541-.682c-.056-.142-.1-.284-.142-.433a.25.25,0,0,0-.214-.179.245.245,0,0,0-.247.131c-.605,1.14-1.284,1.623-2.061,1.475a.521.521,0,0,1-.345-.492c-.016-.379-.063-.752-.108-1.114a.256.256,0,0,0-.151-.181.294.294,0,0,0-.252.012,1.63,1.63,0,0,0-.185.112,5.225,5.225,0,0,1-1.341.71.247.247,0,0,0-.165.157,7,7,0,0,1-1.573,2.3c-.647.694-.894,1.273-.754,1.771.227.812,1.376,1.135,2.592,1.478.44.124.9.251,1.283.4a13.591,13.591,0,0,0,4.862.809,35.143,35.143,0,0,0,9.9-1.822c1.26-.384,2.52-.8,3.738-1.2,2.34-.773,4.762-1.572,7.231-2.152.414-.1.834-.16,1.242-.222,1.408-.213,2.737-.414,3.29-1.907a10.116,10.116,0,0,0,.627-6.316.441.441,0,0,1,.326-.576.485.485,0,0,1,.64.321,8.663,8.663,0,0,1,.306,1.915.274.274,0,0,0,.218.226,3.577,3.577,0,0,1,1.5,1.322l.106.135c.263.332.55.646.828.949a13.067,13.067,0,0,1,1.038,1.237,28.094,28.094,0,0,1,1.9,3.037.25.25,0,0,0,.468-.152,11.8,11.8,0,0,0-.968-2.983c-.112-.2-.225-.393-.337-.592a12.175,12.175,0,0,0-2.345-3.248,8.981,8.981,0,0,1-2.134-3.976c-.141-.41-.279-.812-.427-1.194a.359.359,0,0,1,.033-.378.576.576,0,0,1,.529-.175.518.518,0,0,1,.418.337c.181.467.362.919.55,1.364a.245.245,0,0,0,.248.152.252.252,0,0,0,.224-.186c.63-2.4-.019-4.651-.706-7.038l-.1-.363c-.131-.457-.266-.874-.393-1.264-.566-1.741-.94-2.891.02-4.882a.312.312,0,0,1,.069-.083.251.251,0,0,0,.04-.3,27.146,27.146,0,0,1-1.67-3.549.254.254,0,0,0-.168-.15.25.25,0,0,0-.221.047L75.4,47.9a4.039,4.039,0,0,1-.579.42,2.762,2.762,0,0,1-.727.223,4.419,4.419,0,0,0-.6.159,5.787,5.787,0,0,0-.546.24,3.417,3.417,0,0,1-.793.3,2.9,2.9,0,0,1-.787-.009c-.14-.014-.28-.027-.418-.032a.492.492,0,0,1-.482-.542.5.5,0,0,1,.124-.33.458.458,0,0,1,.339-.127c.082,0,.179.016.283.028a1.8,1.8,0,0,0,1.055-.07,4.981,4.981,0,0,1,.984-.435c.1-.034.231-.062.366-.093a2.308,2.308,0,0,0,.99-.378.7.7,0,0,0,.1-.082.25.25,0,0,0-.12-.423,2.658,2.658,0,0,1-1.07-.477,1.211,1.211,0,0,1-.252-.327,1.142,1.142,0,0,0-.588-.571l-.1-.028a2.145,2.145,0,0,1-.743-.32c-.5-.384-.98-.8-1.448-1.207-.253-.219-.506-.437-.763-.653-.287-.238-.579-.446-.867-.652a7.823,7.823,0,0,1-1.354-1.127.517.517,0,0,1,.068-.755.412.412,0,0,1,.622.023,15.482,15.482,0,0,0,2.334,2c.452.339.921.689,1.34,1.048a3.951,3.951,0,0,0,1,.575,3.008,3.008,0,0,1,.911.545c.116.114.212.218.3.311a2.309,2.309,0,0,0,.621.532.25.25,0,0,0,.343-.329,11.373,11.373,0,0,0-1.594-2.285,8.988,8.988,0,0,1-1.679-2.564c-.176-.476-.335-.947-.491-1.408-.739-2.191-1.436-4.261-3.656-5.792a.536.536,0,0,1-.121-.768.462.462,0,0,1,.257-.194.4.4,0,0,1,.33.078c2.221,1.53,3.145,3.638,4.123,5.868a17.415,17.415,0,0,0,2.922,5.011,6.255,6.255,0,0,1,1.2,2.793,10.018,10.018,0,0,0,.683,2.053A25.6,25.6,0,0,0,79.858,52.9a.25.25,0,0,0,.442-.142c.127-1.794.258-3.649-.806-5.244a.392.392,0,0,1-.048-.414.582.582,0,0,1,.474-.3.473.473,0,0,1,.447.23c1.029,1.543.879,3.549.734,5.488a17.977,17.977,0,0,0-.063,2.932A2.377,2.377,0,0,0,83.273,57.9a3.807,3.807,0,0,1,1.583.657A9.841,9.841,0,0,0,86.7,59.728a.25.25,0,0,0,.309-.374,10.479,10.479,0,0,1-1.871-5.177.545.545,0,0,1,.208-.522.552.552,0,0,1,.513-.107.348.348,0,0,1,.2.3c.269,1.925.831,5.932,3.776,6.851.09.016.18.038.274.06l.07.017a.609.609,0,0,0,.108.047c.527.126,1.051.2,1.557.282l.336.052a.247.247,0,0,0,.252-.117.25.25,0,0,0-.012-.277,6.738,6.738,0,0,1-.8-2.353c-.063-.3-.121-.566-.183-.791-.114-.4-.238-.788-.361-1.174a14.764,14.764,0,0,1-.725-2.957.37.37,0,0,1,.363-.438.569.569,0,0,1,.639.49,25.473,25.473,0,0,0,1.411,5.276l.2.572c.417,1.2,2.47,2.458,4.052,2.837a.25.25,0,0,0,.245-.41,6.764,6.764,0,0,1-1.634-2.965,12.1,12.1,0,0,1,.8-7.027,17.7,17.7,0,0,0,.605-1.724c.167-.527.339-1.071.538-1.591a.252.252,0,0,0-.069-.278.245.245,0,0,0-.283-.031,4.7,4.7,0,0,0-1.16.86.8.8,0,0,1-.848.149,4.258,4.258,0,0,0-2.508-.45c-.185.005-.374.01-.566.01-1.194,0-3.54-.244-3.612-.253L88.46,48.5a.477.477,0,0,0-.142.021c-1.709.108-2.449,1.01-3.3,2.053a12.938,12.938,0,0,0-2.351,3.741.482.482,0,0,1-.383.337.582.582,0,0,1-.535-.168.383.383,0,0,1-.049-.4,14.138,14.138,0,0,1,2.259-3.779c.283-.378.567-.758.842-1.149a4.721,4.721,0,0,1,3.624-1.64.382.382,0,0,1-.056,0,.858.858,0,0,0,.087.01.784.784,0,0,0,.1-.008c.15,0,.327,0,.523-.009.409-.013.917-.025,1.428,0a.241.241,0,0,0,.243-.154.249.249,0,0,0-.063-.281l-.18-.16a3.779,3.779,0,0,1-.784-.837,7.014,7.014,0,0,0-2.32-2.429c-.781-.507-1.6-.971-2.394-1.42-.749-.424-1.523-.862-2.251-1.33a.506.506,0,0,1-.137-.731.427.427,0,0,1,.623-.145c.578.368,1.166.722,1.753,1.069a.251.251,0,0,0,.375-.251c-.049-.335-.084-.663-.121-1.005l-.066-.595A2.712,2.712,0,0,0,83.8,36.974a4.278,4.278,0,0,1-.9-.766,7.79,7.79,0,0,1-1.137-2.3,6.276,6.276,0,0,0-1.648-2.856,23.171,23.171,0,0,0-7.569-4.1A2.99,2.99,0,0,1,70.531,25.362ZM90.7,59.5a.6.6,0,0,1-.55.159.449.449,0,0,1-.338-.332,6.024,6.024,0,0,0-.446-1.014,5.319,5.319,0,0,1-.429-.982,6.8,6.8,0,0,1-.192-1.418,9.937,9.937,0,0,0-.126-1.168,11.421,11.421,0,0,1,.017-3.763v0a.342.342,0,0,1,.2-.3.39.39,0,0,1,.151-.028.642.642,0,0,1,.382.138.545.545,0,0,1,.213.521,11.279,11.279,0,0,0,.046,2.814c.05.477.1.97.116,1.478a6.2,6.2,0,0,0,.613,2.344,11.7,11.7,0,0,1,.425,1.131A.41.41,0,0,1,90.7,59.5ZM71.941,64.065a1.8,1.8,0,0,1,.278-.315,2.137,2.137,0,0,0,.207-.221.634.634,0,0,1,.463-.275.476.476,0,0,1,.237.068.59.59,0,0,1,.249.381.348.348,0,0,1-.048.277,2.559,2.559,0,0,1-.192.2,1.888,1.888,0,0,0-.328.385.419.419,0,0,1-.4.239.594.594,0,0,1-.49-.289A.43.43,0,0,1,71.941,64.065Zm-13.728,3.04c-1,.431-1.988.858-2.971,1.264a.352.352,0,0,1-.364-.022.587.587,0,0,1-.178-.524.536.536,0,0,1,.335-.438c1.236-.509,2.572-.99,3.865-1.455l.276-.1a.253.253,0,0,0,.163-.2.25.25,0,0,0-.1-.237,6.364,6.364,0,0,1-1.194-1.27,8.594,8.594,0,0,0-1.02-1.151A14.417,14.417,0,0,1,54.4,59.432l-.252-.424a.451.451,0,0,1,.181-.652.6.6,0,0,1,.3-.084.438.438,0,0,1,.389.236c.141.233.28.476.421.723a9.222,9.222,0,0,0,2.437,3.129,4.084,4.084,0,0,1,.957,1.081,3.711,3.711,0,0,0,1.515,1.451.393.393,0,0,1,.2.2.249.249,0,0,0,.314.127,37.847,37.847,0,0,0,5.265-2.331c2.392-1.346,4.747-2.872,7.024-4.348l.925-.6a.409.409,0,0,1,.346-.068.487.487,0,0,1,.267.211.508.508,0,0,1-.135.734c-.748.482-1.5,1.01-2.289,1.569a26.079,26.079,0,0,1-6.622,3.783C63.153,64.975,60.642,66.058,58.213,67.105Zm10.613-9.891.007,0c.168-.065.339-.113.51-.162s.323-.093.483-.152a.35.35,0,0,1,.116-.02.453.453,0,0,1,.2.054.541.541,0,0,1,.273.321.523.523,0,0,1-.368.623c-.158.057-.318.1-.478.146s-.347.1-.52.161a.415.415,0,0,1-.325-.033.526.526,0,0,1-.268-.315A.517.517,0,0,1,68.826,57.214Zm-3.507,1.357c-.449,0-.9.008-1.345.015-2.545.044-4.954.081-6.952-1.2a.478.478,0,0,1-.242-.443.567.567,0,0,1,.279-.466.347.347,0,0,1,.164-.041.459.459,0,0,1,.25.083h0c1.873,1.2,4.527,1.131,6.662,1.079.417-.011.815-.021,1.184-.021.246,0,.312.327.312.5S65.565,58.571,65.319,58.571ZM74.355,54a3.357,3.357,0,0,1-1.294.137l-.187,0a.447.447,0,0,1-.357-.153.546.546,0,0,1-.12-.357.536.536,0,0,1,.122-.347.437.437,0,0,1,.343-.141h.006l.194.005a2.578,2.578,0,0,0,1.075-.119.4.4,0,0,1,.318.033.551.551,0,0,1,.274.326A.518.518,0,0,1,74.355,54ZM72.2,51.813c-.4.1-.785.238-1.159.369l-.383.132a3.785,3.785,0,0,1-.582.139,3.709,3.709,0,0,0-.73.186c-.135.053-.281.108-.434.164-.944.35-2.119.785-2.545,1.667a.4.4,0,0,1-.575.19.538.538,0,0,1-.273-.727,2.923,2.923,0,0,1,1.806-1.406A7.057,7.057,0,0,0,68.5,51.95a2.649,2.649,0,0,1,.919-.316,4.973,4.973,0,0,0,.646-.168l.422-.15c.47-.168.955-.341,1.434-.466a.472.472,0,0,1,.6.36A.456.456,0,0,1,72.2,51.813ZM58.732,71.125a.556.556,0,0,1,.487-.627,7.348,7.348,0,0,0,2.99-1.2c.307-.179.611-.357.916-.516a3.752,3.752,0,0,1,1.042-.3c.215-.041.431-.083.643-.143a16.606,16.606,0,0,0,5.263-2.979.5.5,0,0,1,.331-.127.564.564,0,0,1,.189.034.587.587,0,0,1,.375.412.366.366,0,0,1-.158.353h0a17.094,17.094,0,0,1-5.245,3.129,17.985,17.985,0,0,0-2.627,1.068A11.694,11.694,0,0,1,59.173,71.5.381.381,0,0,1,58.732,71.125ZM69.7,39.064a.5.5,0,0,1-.742.058,9.132,9.132,0,0,1-1.146-1.2,6.989,6.989,0,0,1-.621-1.022c-.077-.144-.155-.289-.236-.433a.474.474,0,0,1,.2-.672.558.558,0,0,1,.273-.077.427.427,0,0,1,.381.24l0,0c.088.152.168.307.249.463a5.745,5.745,0,0,0,.549.915,8.5,8.5,0,0,0,1.071,1.087A.424.424,0,0,1,69.7,39.064ZM83.555,43.6a.412.412,0,0,1,.556.289.512.512,0,0,1-.312.684,6.641,6.641,0,0,0-1.27.54l-.089.051c-.286.162-.717.406-.757.772a.525.525,0,0,1-.5.527.564.564,0,0,1-.4-.191.365.365,0,0,1-.105-.283C80.814,44.7,82.141,44.079,83.555,43.6ZM79,39.136c-.207.3-.39.6-.575.9l-.2.32c-.041.065-.089.133-.138.2a2.409,2.409,0,0,0-.362.653.488.488,0,0,1-.641.322.441.441,0,0,1-.326-.576,4.536,4.536,0,0,1,.594-1.117c.108-.164.215-.327.312-.494a10.8,10.8,0,0,1,1.019-1.48,3.409,3.409,0,0,1,2.57-1.212.43.43,0,0,1,.457.425.511.511,0,0,1-.482.575A2.753,2.753,0,0,0,79,39.136Z"/><path d="M50.338,54.083a.254.254,0,0,0,.021.276,1.225,1.225,0,0,1,.28,1.057.725.725,0,0,1-.226.349.25.25,0,0,0-.064.284,11.034,11.034,0,0,1,.6,1.876.25.25,0,0,0,.222.194h.021a.25.25,0,0,0,.231-.154l.072-.173a7.744,7.744,0,0,1,.531-1.117l.06-.1a3.365,3.365,0,0,1,.76-.951c.089-.064.184-.126.28-.188a3.045,3.045,0,0,0,.749-.606.248.248,0,0,0,.046-.224l-.028-.1a10.466,10.466,0,0,1,.1-1.4,8.789,8.789,0,0,0,.085-1.8,9.087,9.087,0,0,0-.294-1.4,9.487,9.487,0,0,1-.269-1.227c-.061-.455-.1-.913-.144-1.369a10.691,10.691,0,0,0-.939-4.116.25.25,0,0,0-.36-.092.607.607,0,0,1-.15.036.692.692,0,0,0-.2.1.249.249,0,0,0-.131.27,2.074,2.074,0,0,1-.173,1.556.252.252,0,0,0-.049.15v.085a.99.99,0,0,1-.129.281.25.25,0,0,0-.018.218.648.648,0,0,1,.043.232,2.209,2.209,0,0,1-.358,1.442c-.011.012-.047.054-.056.067a.249.249,0,0,0-.043.14.348.348,0,0,1-.011.072.253.253,0,0,0,.074.23.46.46,0,0,1,.147.358,2,2,0,0,1-.3,1.228.249.249,0,0,0-.017.274.473.473,0,0,1,.072.244,5.6,5.6,0,0,1-.213,1.485.248.248,0,0,0,.041.226.507.507,0,0,1,.092.156,2.566,2.566,0,0,1-.258,1.958C50.406,53.962,50.372,54.023,50.338,54.083Z"/><path d="M61.541,26.569a3.132,3.132,0,0,0-.054,1.322.247.247,0,0,0,.118.155.253.253,0,0,0,.124.033.237.237,0,0,0,.07-.01,27.182,27.182,0,0,0,4.388-1.613l.217-.105c.3-.142.741-.355,1.193-.622a.251.251,0,0,0,.107-.3.243.243,0,0,0-.275-.161,3.878,3.878,0,0,1-2.9-.85c-.252-.177-.495-.344-.728-.505A19.217,19.217,0,0,1,62.029,22.6a.25.25,0,0,0-.415.2c.029.965.061,2.059.023,3.083A5.526,5.526,0,0,1,61.541,26.569Z"/><path d="M49.2,56.5l-.087.031a.806.806,0,0,1-.138.039c-.03,0-.059.005-.088.01a.243.243,0,0,0-.16.1c-.007.009-.031.052-.036.062-.677.676-.834,2.579-.96,4.108-.043.512-.08.955-.13,1.252a30.888,30.888,0,0,1-1.026,4.461,29.29,29.29,0,0,1-2.466,5.855.25.25,0,0,0,.376.317l.188-.156c.185-.152.358-.3.5-.405a.507.507,0,0,1,.464,0,2.229,2.229,0,0,1,.735,2.006.251.251,0,0,0,.215.272l.035,0a.25.25,0,0,0,.245-.206A19.81,19.81,0,0,1,47.476,72a.454.454,0,0,1,.437-.342h.021a.532.532,0,0,1,.5.3.459.459,0,0,0,.087.115,4.764,4.764,0,0,1,.438,1.029l.025.072a.248.248,0,0,0,.234.17.216.216,0,0,0,.237-.165,3.867,3.867,0,0,0,.255-1.166.469.469,0,0,1,.33-.449.547.547,0,0,1,.577.132.253.253,0,0,0,.264.079.249.249,0,0,0,.177-.212l.023-.225c.06-.776.09-1.572.09-2.369a15.341,15.341,0,0,0-.246-2.208c-.078-.483-.159-.981-.2-1.482-.052-.574-.092-1.2-.134-1.852a23.557,23.557,0,0,0-1.075-6.775A.247.247,0,0,0,49.2,56.5Z"/><path d="M68.6,7.947a3.572,3.572,0,0,0-3.582-.034h0a7.414,7.414,0,0,0-4.5,6.161.647.647,0,0,1-.062.208.249.249,0,0,0-.012.213,12.852,12.852,0,0,1,.607,3.223,10.41,10.41,0,0,0,.193,1.379,7.317,7.317,0,0,0,4.783,4.826,3.712,3.712,0,0,0,.788.086,3.633,3.633,0,0,0,2.843-1.469c2.057-2.5,2.172-6.515,2.126-8.123C71.719,12.137,70.514,9.094,68.6,7.947Z"/><path d="M94.256,119.448c.532,0,1.081-.011,1.61.026h0c.052,0,.1,0,.155,0a2.828,2.828,0,0,0,2.533-2.425.25.25,0,0,0-.015-.155,4.433,4.433,0,0,0-.485-.86.25.25,0,0,0-.261-.134,6.318,6.318,0,0,0-1.223.3,14.67,14.67,0,0,0-2.929,1.79c-.34.24-.688.487-1.039.726a.25.25,0,0,0,.012.421,1.972,1.972,0,0,0,1.051.313C93.862,119.452,94.059,119.45,94.256,119.448Z"/><path d="M101.117,59.608a5.668,5.668,0,0,1-.878-.674,7.805,7.805,0,0,0-.753-.6,5.855,5.855,0,0,0-1.325-.619,8.137,8.137,0,0,1-.821-.334c-.153-.082-.3-.168-.443-.252l-.108-.063a.255.255,0,0,0-.265.007.25.25,0,0,0-.108.242,4.86,4.86,0,0,0,1.536,3.041c.2.232.431.486.676.785a1.19,1.19,0,0,0,.888.539h.048c.531-.034.892-.611,1.241-1.169.076-.122.153-.245.238-.371a.585.585,0,0,1,.116-.123.249.249,0,0,0-.042-.4Z"/><path d="M99.731,111.084c-.13-.213-.263-.422-.4-.628A10.86,10.86,0,0,1,98.4,108.8a.546.546,0,0,0-.095-.12.3.3,0,0,1-.067-.077,8.074,8.074,0,0,1-.549-1.392A4.4,4.4,0,0,0,96.2,104.7a12.615,12.615,0,0,1-1.37-1.061,4.474,4.474,0,0,1-.326-.345c-.4-.452-.711-.776-.973-.839a.4.4,0,0,1-.323-.3.251.251,0,0,0-.138-.162.507.507,0,0,1-.269-.287,26.787,26.787,0,0,1-.869-2.595,16.826,16.826,0,0,0-1.735-4.3c-1.4-2.236-4.025-3.794-6.158-4.9a.422.422,0,0,1-.182-.605.508.508,0,0,1,.706-.248A30.106,30.106,0,0,1,87.9,91.044a.25.25,0,0,0,.373-.3c-1.4-3.166-4.281-4.548-7.366-5.8-.764-.314-1.54-.717-2.29-1.108a13.89,13.89,0,0,0-5.036-1.847.5.5,0,0,1-.432-.3.587.587,0,0,1,.024-.56.379.379,0,0,1,.365-.14,11.064,11.064,0,0,1,4.509,1.506,20.485,20.485,0,0,0,2.692,1.162,17.581,17.581,0,0,1,2.934,1.313c.883.536,1.554.955,2.167,1.385a.245.245,0,0,0,.224.032.25.25,0,0,0,.158-.162c.373-1.192-.609-2.775-1.326-3.93-.157-.254-.3-.482-.4-.67a22.5,22.5,0,0,0-1.962-2.948.237.237,0,0,0-.054-.051.557.557,0,0,1-.191-.246.233.233,0,0,0-.034-.057l-.162-.209a.512.512,0,0,1-.123-.4.255.255,0,0,0-.023-.136,22.859,22.859,0,0,0-1.977-3.31,17,17,0,0,0-1.206-1.47c-.258-.291-.516-.581-.76-.882-.066-.081-.137-.182-.213-.289a5.073,5.073,0,0,0-.516-.644.249.249,0,0,0-.426.159c-.162,2.351-.848,4.246-1.884,5.2a5.57,5.57,0,0,1-2.846.7,11.969,11.969,0,0,0-1.408.178A45.97,45.97,0,0,0,64.5,79.1c-6.083,2.287-11.348,3.446-15.648,3.446a18.316,18.316,0,0,1-7.916-2.058.251.251,0,0,0-.287.028,19.728,19.728,0,0,0-6.2,10.991,16.676,16.676,0,0,0-.135,3.115,15.983,15.983,0,0,1-.112,2.879,12.759,12.759,0,0,1-.759,2.52.25.25,0,0,0,.361.306c.526-.314,1.063-.616,1.6-.917a35.2,35.2,0,0,0,3.09-1.882.368.368,0,0,1,.381-.065.58.58,0,0,1,.3.464.506.506,0,0,1-.223.484c-.9.644-1.831,1.19-2.733,1.718-2.164,1.268-4.207,2.465-5.587,4.817-.048.082-.138.218-.25.388a7.152,7.152,0,0,0-1.254,2.431.25.25,0,0,0,.146.233.577.577,0,0,1,.166.144.262.262,0,0,0,.2.082,11.552,11.552,0,0,0,4.713-1.441c1.89-1.051,3.819-2.077,5.684-3.069,3.154-1.678,6.414-3.413,9.556-5.305a.451.451,0,0,1,.651.182.475.475,0,0,1-.151.685c-.868.523-1.733,1.057-2.6,1.593a68.486,68.486,0,0,1-9.574,5.24c-.6.246-1.32.641-2.086,1.059-2.043,1.114-4.58,2.5-6.513,2.1a.247.247,0,0,0-.259.107c-.295.447-.686,1.086-1.1,1.759a24.812,24.812,0,0,1-2.064,3.1.25.25,0,0,0,.009.488,19.959,19.959,0,0,1,4.4,1.585c.742.337,1.508.685,2.343,1a3.963,3.963,0,0,1,2.691,2.382,1.224,1.224,0,0,0,.846.9,1.322,1.322,0,0,0,.336.042c1.239,0,3.041-1.505,4.672-3.016l.292-.27a21.69,21.69,0,0,0,2.876-3.513c.6-.846,1.222-1.721,1.872-2.464,1.072-1.22,2.057-2.527,3.01-3.791.878-1.165,1.786-2.369,2.754-3.494a28.4,28.4,0,0,0,3.653-5.928c.429-.846.872-1.722,1.351-2.573a24.941,24.941,0,0,1,1.581-2.362,22.514,22.514,0,0,0,1.954-3.029.25.25,0,0,0-.323-.341c-7.339,3.163-13.873,6.208-19.508,11.45a.5.5,0,0,1-.729-.05.433.433,0,0,1,.013-.647c6.3-5.861,14.1-9.2,20.991-12.152a.252.252,0,0,0,.147-.183.249.249,0,0,0-.069-.224c-.028-.028-.054-.059-.08-.088a1.6,1.6,0,0,0-.129-.137.441.441,0,0,1-.121-.22.251.251,0,0,0-.164-.178c-.064-.021-.13-.04-.2-.059a2.7,2.7,0,0,1-.268-.087,11.2,11.2,0,0,1-2.205-1.206,13.918,13.918,0,0,0-1.833-1.059.368.368,0,0,1-.2-.53.564.564,0,0,1,.745-.31,18.128,18.128,0,0,1,1.794.971A9.78,9.78,0,0,0,62.16,86.7a16.265,16.265,0,0,1,2.625.66,13.438,13.438,0,0,0,3.483.751c4.535.2,8.316.386,12.255.874a.575.575,0,0,1,.492.659.356.356,0,0,1-.432.344c-1.916-.238-3.95-.3-5.916-.355a42.222,42.222,0,0,1-8.8-.868c-.589-.15-1.2-.284-1.826-.422-.378-.083-.759-.166-1.139-.254a.25.25,0,0,0-.261.386c.52.75.992,1.585,1.449,2.393.267.472.528.934.79,1.363A9.224,9.224,0,0,0,68.7,96.052c.126.066.259.132.394.2a5.544,5.544,0,0,1,1.313.8,10.662,10.662,0,0,1,.981,1.078,6.182,6.182,0,0,0,2.142,1.881c.763.345,1.571.618,2.353.884.589.2,1.2.406,1.778.641a12.917,12.917,0,0,1,2.483,1.473,12.653,12.653,0,0,0,2.77,1.6.5.5,0,0,1,.337.4.587.587,0,0,1-.171.531.372.372,0,0,1-.391.038,19.486,19.486,0,0,1-3.445-1.83,18.024,18.024,0,0,0-4.044-2.055,13.459,13.459,0,0,1-2.2-.876.254.254,0,0,0-.308.062.25.25,0,0,0,0,.314,14.5,14.5,0,0,0,1.7,1.869c.741.665,1.482,1.247,2.2,1.81a18.388,18.388,0,0,1,4.281,4.227,14.127,14.127,0,0,0,3.017,3,19.013,19.013,0,0,1,2.139,1.916.254.254,0,0,0,.272.066.25.25,0,0,0,.163-.228l.006-.264c.066-2.652.123-4.943-.779-7.324a.389.389,0,0,1,.047-.41.623.623,0,0,1,.55-.191.474.474,0,0,1,.382.32c.92,2.432.866,7.157.8,9.075a.25.25,0,0,0,.009.077,9.415,9.415,0,0,1,.261,2.57c0,.037-.005.137-.012.273-.008.155-.017.356-.025.564a.257.257,0,0,0,.03.13,1.324,1.324,0,0,0,.905.722c.938.19,2.068-.729,2.98-1.463.256-.206.492-.4.7-.539a13.963,13.963,0,0,1,4.835-2.411,10.284,10.284,0,0,1,2.379-.271,1.234,1.234,0,0,0,1.188-.538c.408-.747-.263-1.967-.893-2.946Zm-19.9-11.548a.509.509,0,0,1,.619-.419,11.425,11.425,0,0,1,3.932,2.122,17.8,17.8,0,0,0,2.624,1.665c1.672.805,3.327,1.8,4.929,2.754,1.057.632,2.149,1.285,3.235,1.88a.438.438,0,0,1,.176.631.492.492,0,0,1-.686.226c-1.007-.55-2.026-1.173-3.012-1.776a50,50,0,0,0-4.372-2.479,20.048,20.048,0,0,1-2.705-1.7,13.384,13.384,0,0,0-4.416-2.364A.421.421,0,0,1,79.833,99.536Zm4.894-1.906a.409.409,0,0,1-.429.075c-.622-.193-1.255-.431-1.867-.662a18.3,18.3,0,0,0-3.662-1.092,16.727,16.727,0,0,1-4.126-1.343c-.513-.218-1.031-.438-1.57-.644h0a.5.5,0,0,1-.334-.408.585.585,0,0,1,.174-.529.317.317,0,0,1,.206-.072.49.49,0,0,1,.181.038c.429.164.849.331,1.265.5A28.811,28.811,0,0,0,79.075,95a30.959,30.959,0,0,1,3.541,1.09c.642.227,1.285.454,1.938.658a.455.455,0,0,1,.332.345A.589.589,0,0,1,84.727,97.63Zm7.851,12.753a.47.47,0,0,1,.695-.025c.266.262.545.511.824.76s.543.484.8.739a.454.454,0,0,1-.012.681.477.477,0,0,1-.7.027c-.265-.261-.54-.508-.816-.755s-.542-.487-.8-.744A.455.455,0,0,1,92.578,110.383Zm-43.2-21.867a32.717,32.717,0,0,1-4.65,3.136,17.161,17.161,0,0,0-2.539,1.759,11.3,11.3,0,0,1-3.59,2.172.417.417,0,0,1-.437-.091A.592.592,0,0,1,38,94.946a.444.444,0,0,1,.332-.329,9.529,9.529,0,0,0,2.727-1.773c.4-.32.77-.621,1.069-.823.532-.357,1.1-.668,1.643-.968.414-.228.828-.455,1.231-.7a45.749,45.749,0,0,0,3.862-2.7c.882-.665,1.795-1.352,2.728-1.979a.444.444,0,0,1,.248-.085.349.349,0,0,1,.155.037.589.589,0,0,1,.3.479.478.478,0,0,1-.23.449h0C51.14,87.17,50.242,87.854,49.374,88.516Zm-7.145-2.109a5.945,5.945,0,0,0-1.929,1.45.385.385,0,0,1-.279.127.553.553,0,0,1-.405-.143.525.525,0,0,1,.012-.73h0A6.312,6.312,0,0,1,41.7,85.562a.532.532,0,0,1,.242-.062.486.486,0,0,1,.261.079.591.591,0,0,1,.269.494A.391.391,0,0,1,42.229,86.407ZM32.082,113.538c1.363-.654,2.773-1.225,4.137-1.777a32.924,32.924,0,0,0,8.749-4.632A.516.516,0,0,1,45.3,107a.557.557,0,0,1,.2.038.585.585,0,0,1,.371.411.364.364,0,0,1-.159.346h0a33.57,33.57,0,0,1-8.93,4.78c-1.362.56-2.771,1.139-4.163,1.8a.537.537,0,0,1-.727-.282A.392.392,0,0,1,32.082,113.538Z"/><path d="M104.089,53.5c-.237-.184-.417-.323-.5-.4a6.146,6.146,0,0,1-1.974-3.211,7.061,7.061,0,0,1-.019-3.476c.1-.433.223-.863.355-1.279a.25.25,0,0,0-.363-.293,2.585,2.585,0,0,0-1.069,1.139,3.51,3.51,0,0,1-.547.911,5.593,5.593,0,0,0-.626.942.422.422,0,0,1-.369.227.251.251,0,0,0-.22.147,16.358,16.358,0,0,0-.687,2.009,12.859,12.859,0,0,1-.438,1.329,16.338,16.338,0,0,0-1.217,3.94.249.249,0,0,0,.127.254,29.314,29.314,0,0,0,2.941,1.421,4.288,4.288,0,0,1,1.152.774c.072.062.157.148.249.241.116.117.243.245.372.358a.25.25,0,0,0,.389-.08.538.538,0,0,1,.518-.23.629.629,0,0,1,.5.139c.415.321.623.39.738.39a.256.256,0,0,0,.113-.026.954.954,0,0,0,.463-.477.418.418,0,0,1,.3-.229.554.554,0,0,1,.443.144.251.251,0,0,0,.165.063.457.457,0,0,1,.325.121c.419.385.847.267,1.259.326a.337.337,0,0,0,.282-.184.514.514,0,0,1,.043-.081.253.253,0,0,0,.021-.24.352.352,0,0,1,.2-.518.645.645,0,0,0,.416-.524C107.521,56.339,106.161,55.107,104.089,53.5Z"/><path d="M31.482,117.941c-.112-.041-.223-.085-.337-.13l-.16-.063a.248.248,0,0,0-.318.129.459.459,0,0,1-.271.254c-.411.165-.827.366-1.268.578a7.171,7.171,0,0,1-3.776,1.069,2.922,2.922,0,0,1-1.968-1.72.249.249,0,0,0-.376-.108,10.035,10.035,0,0,0-1.489,1.267,11.154,11.154,0,0,0-.732.932,8.21,8.21,0,0,1-.59.752.25.25,0,0,0,.035.479,13.41,13.41,0,0,0,2.749.358q.591,0,1.184,0c.4,0,.793.005,1.189.005s.8,0,1.193-.01a6.826,6.826,0,0,0,3.049-.79c.24-.109.5-.225.791-.347.582-.252,1.153-.543,1.7-.824.4-.2.8-.405,1.2-.595a.25.25,0,0,0,.028-.438A11.745,11.745,0,0,0,31.482,117.941Z"/><path d="M98.847,119.192a.249.249,0,0,0-.282.08c-.742.939-1.172,1.129-1.362,1.159a14.543,14.543,0,0,1-2.694.055c-.43-.017-.859-.035-1.278-.035h-.089a1.485,1.485,0,0,1-1.009-.218,1.2,1.2,0,0,1-.126-.139l-.045-.055a.261.261,0,0,0-.228-.087.246.246,0,0,0-.193.148l-.144.32a3.645,3.645,0,0,0-.474,2.078.251.251,0,0,0,.2.21,6.307,6.307,0,0,0,1.107.084c.388,0,.78-.021,1.146-.042.233-.013.456-.025.659-.031a11.267,11.267,0,0,0,3.376-.626,2.59,2.59,0,0,0,1.6-2.658A.248.248,0,0,0,98.847,119.192Z"/></g></svg>