<svg xmlns="http://www.w3.org/2000/svg" version="1.1" x="0px" y="0px" viewBox="0 0 133.718 292.52375" style="enable-background:new 0 0 133.718 234.019;" ><g>
<path d="M60.837,6.429c-0.671-1.62-1.66-3.219-3.174-4.445C56.157,0.754,54.118-0.011,51.75,0   c-4.032,0.053-8.962,1.951-15.545,6.719c-2.614-0.766-5.259-1.278-7.986-1.285c-4.627-0.021-9.402,1.593-14.031,5.682   C9.542,15.2,4.921,21.672,0,31.582l3.583,1.781v-0.003c4.779-9.644,9.192-15.691,13.244-19.236c4.068-3.54,7.657-4.669,11.393-4.69   c1.286-0.004,2.599,0.144,3.943,0.406c-2.078,1.696-4.302,3.644-6.692,5.866C13.203,27.193,5.33,42.388,5.269,42.486l3.549,1.849   c0-0.004,0.462-0.894,1.366-2.45c2.706-4.667,9.296-15.111,18.018-23.256c3.228-3.033,6.136-5.497,8.741-7.479   c1.849,0.622,3.758,1.365,5.735,2.149c4.93,1.938,10.287,4.072,16.282,4.804c0.69-2.455,1.751-4.754,3.124-6.833   C61.878,9.756,61.508,8.069,60.837,6.429z M44.146,9.578C43.071,9.156,42,8.736,40.928,8.331C45.898,5.102,49.456,3.954,51.75,4   c1.563,0.011,2.562,0.434,3.401,1.097c1.247,0.987,2.12,2.78,2.596,4.737c0.366,1.473,0.513,2.988,0.562,4.159   C53.394,13.225,48.735,11.392,44.146,9.578z"/>
<path d="M132.597,39.126l0.507-5.071c-0.921,0.063-1.834,0.095-2.73,0.095c-5.338-0.007-10.144-0.995-13.178-1.796l-0.379,3.791   c0.888,0.318,2.026,0.695,3.389,1.077C123.375,38.107,127.709,38.983,132.597,39.126z"/>
<path d="M130.374,30.15c1.036,0,2.085-0.061,3.135-0.154l0.169-1.686c0.44-4.395-2.768-8.314-7.163-8.755   c-4.396-0.439-8.317,2.768-8.755,7.165l-0.16,1.599c0.616,0.171,1.324,0.356,2.132,0.543   C122.519,29.509,126.334,30.152,130.374,30.15z"/>
<path d="M116.407,40.236l-0.441,4.41c0.81,0.28,1.774,0.592,2.905,0.906c3.278,0.916,7.8,1.821,12.892,1.917l0.435-4.353   C125.426,42.877,119.774,41.372,116.407,40.236z"/>
<path d="M114.531,58.994l-19.228-1.339c-0.12,0.185-0.24,0.369-0.36,0.554c-4.718,7.258-9.393,14.508-10.548,16.299   c-0.209,0.324-0.321,0.496-0.323,0.498c-1.794,2.795-4.939,4.512-8.357,4.512c-1.468,0-2.894-0.32-4.239-0.945L41.149,64.36   c-1.737-0.813-3.122-2.071-4.103-3.57c-4.261,23.637-0.882,39.097,4.624,62.018c0.042,0.197,0.074,0.394,0.126,0.591h-0.001   c0.156,0.6,2.75,11.107,2.744,27.199c0,10.701-1.139,23.833-4.827,38.252c1.547,0.728,3.687,1.648,6.327,2.572   c4.625,1.618,10.774,3.219,17.849,3.808c4.322-16.819,5.653-32.14,5.652-44.632c-0.002-4.282-0.158-8.233-0.404-11.812   c3.982,1.905,8.854,1.641,12.694-1.114v-0.002l-0.001-0.001c0.299-0.214,3.648-2.529,7.837-4.639   c2.146-1.088,4.51-2.116,6.655-2.801c2.138-0.701,4.053-1.009,5.085-0.991c0.229-0.002,0.413,0.01,0.552,0.024   c0.337,0.727,1.053,2.92,1.032,7.139c0.003,1.135-0.048,2.41-0.154,3.811c0.209,0.042,0.412,0.084,0.636,0.127   c2.955,0.565,7.123,1.131,11.904,1.131c3.872,0,8.147-0.382,12.514-1.413c0.063-1.249,0.099-2.469,0.101-3.655   c-0.004-4.651-0.478-8.875-1.583-12.825c-1.596-5.872-5.005-11.349-9.912-14.785c-4.88-3.472-10.409-4.571-15.089-4.554   c-4.857,0.019-9.174,1.034-13.1,2.31c-1.947,0.653-3.807,1.386-5.574,2.148c1.806-13.589,7.827-21.387,12.776-34.984l25.653,1.787   c0.188,0.013,0.375,0.018,0.561,0.018c4.073,0.001,7.543-3.093,7.956-7.205l1.684-16.85c-6.674-0.172-12.307-1.59-15.806-2.731   L114.531,58.994z"/>
<path d="M68.362,14.596c13.344,0.002,25.48-2.731,31.413-4.332c-4.127-4.913-10.314-8.039-17.233-8.039   c-8.701,0-16.242,4.941-19.986,12.168C64.505,14.517,66.447,14.596,68.362,14.596z"/>
<path d="M88.974,30.959l0.212-0.295c0.226-0.313,0.421-0.584,0.875-1.119l0.125-0.142c0.164-0.186,0.415-0.469,0.979-0.967   l0.049-0.043l0.053-0.041l0.126-0.102c0.464-0.379,1.013-0.797,2.179-1.35l0.04-0.02l0.058-0.024   c0.73-0.309,1.951-0.822,4.011-0.855c0.506,0.006,1.918,0.014,3.649,0.68c1.169,0.432,2.364,1.209,3.333,2.137   c0.244-1.328,0.378-2.694,0.378-4.094c0-3.986-1.041-7.728-2.86-10.976c-5.507,1.563-18.814,4.84-33.82,4.848   c-2.425-0.002-4.897-0.104-7.384-0.296c-0.606,2.036-0.936,4.191-0.936,6.425c0,11.037,7.948,20.21,18.43,22.126   c1.932-2.972,3.828-5.876,5.499-8.417C86.459,34.649,88.048,32.274,88.974,30.959z"/>
<path d="M87.742,36.352c-0.641,0.965-1.341,2.026-2.1,3.18c-0.205,0.313-0.416,0.634-0.628,0.957l12.903,9.501   c0.971-1.482,1.883-2.868,2.695-4.097L87.742,36.352z"/>
<path d="M42,62.551v-0.002L72.323,76.76c1.093,0.512,2.25,0.756,3.391,0.756c2.648,0,5.214-1.316,6.729-3.672   c0.009-0.014,4.104-6.373,8.758-13.547l-12.829-9.621c-2.035,3.135-3.993,6.16-5.588,8.629l-10.909-5.111   c5.742,1.363,10.178,2.559,10.178,2.559c0.625-0.968,1.276-1.974,1.936-2.992c-8.898-2.069-18.352-4.295-25.928-5.996   c-0.715-0.254-1.445-0.394-2.174-0.438c-0.18-0.018-0.359-0.021-0.537-0.013c-2.367,0.014-4.645,1.08-6.165,2.956   c-0.401,0.495-0.756,1.039-1.038,1.642C36.273,55.912,37.998,60.676,42,62.551z"/>
<path d="M82.82,43.841c-0.742,1.137-1.499,2.3-2.263,3.473l12.829,9.62c0.785-1.208,1.568-2.41,2.337-3.59L82.82,43.841z"/>
<path d="M104.057,31.129c-0.842-1.135-2.209-2.127-3.442-2.582c-1.242-0.475-2.247-0.539-2.902-0.543   c-1.686,0.025-2.63,0.43-3.281,0.703c-1.252,0.594-1.601,0.967-1.943,1.23c-0.583,0.512-0.729,0.713-0.901,0.9   c-0.527,0.623-0.661,0.844-0.976,1.273c-0.185,0.263-0.403,0.577-0.635,0.916l12.862,9.536c0.143-0.21,0.282-0.414,0.402-0.589   c0.164-0.238,0.308-0.443,0.416-0.598c1.282-1.42,2.063-3.299,2.063-5.361C105.666,35.194,105.764,33.504,104.057,31.129z"/>
<path d="M35.65,202.185c1.941,1.031,4.43,2.253,7.386,3.482c4.457,1.857,9.957,3.718,16.146,4.968   c1.38-3.883,2.585-7.709,3.643-11.47c-10.899-1.017-19.53-4.279-24.174-6.401C37.772,195.857,36.781,198.998,35.65,202.185z"/>
<path d="M31.287,213.101c1.332,0.857,2.829,1.77,4.505,2.713c4.735,2.663,10.829,5.536,18.154,7.9   c1.392-3.12,2.666-6.217,3.834-9.283c-10.201-2.133-18.474-5.813-23.537-8.466C33.335,208.325,32.347,210.705,31.287,213.101z"/>
<path d="M35.901,232.832c1.715,0.805,3.521,1.187,5.299,1.187c4.504,0,8.823-2.452,11.046-6.653   c-9.741-3.193-17.355-7.241-22.6-10.562C27.148,222.924,29.846,229.992,35.901,232.832z"/>
<path d="M108.062,175.611c1.058,0.276,2.12,0.408,3.164,0.408c5.474,0,10.471-3.625,12.018-9.117   c-10.133-0.051-19.161-3.409-24.281-5.773C97.708,167.558,101.64,173.935,108.062,175.611z"/><path d="M100.869,153.033c-0.282,1.319-0.598,2.699-0.944,4.131c1.257,0.598,2.829,1.293,4.652,1.987   c4.933,1.887,11.674,3.756,18.807,3.754c0.291,0,0.584-0.014,0.876-0.021c0.633-2.626,1.182-5.135,1.65-7.538   c-1.489,0.087-2.958,0.13-4.397,0.13C113.005,155.473,105.511,154.117,100.869,153.033z"/>
<path d="M102.416,144.208c-0.199,1.518-0.453,3.146-0.77,4.896c0.792,0.186,1.661,0.38,2.627,0.576   c4.417,0.897,10.532,1.796,17.239,1.794c1.677,0.001,3.394-0.063,5.127-0.188c0.405-2.467,0.717-4.818,0.938-7.065   c-4.287,0.906-8.436,1.248-12.202,1.249C110.106,145.469,105.584,144.83,102.416,144.208z"/></g>
</svg>