<svg xmlns="http://www.w3.org/2000/svg" xmlns:xlink="http://www.w3.org/1999/xlink" version="1.1" x="0px" y="0px" viewBox="0 0 64 80" style="enable-background:new 0 0 64 64;" xml:space="preserve"><g><g><g><path d="M12.5599976,23.0449829c-0.0100098-0.039978-0.0100098-0.0699463-0.0100098-0.1099854     c-0.0100098-0.0599976-0.0100098-0.1300049,0-0.1799927v-0.1500244c0-0.0299683,0-0.0499878,0.0100098-0.0799561V23.0449829z"/></g></g><g><g><path d="M36.25,33.1149902c-0.3589897,1.320137-0.1971474,4.5884895-1.2597694,5.6000786     c-0.6738205,0.8083076-3.8750534,0.327137-4.780262,0.4500427c-0.9073582-0.0007057-1.6818981-0.6759224-1.8199558-1.5700798     c0.0191879-1.4305916-1.2228909-4.5474777-0.2502537-5.7799911c0.6068974-1.0686569,5.5227814-0.3716259,6.4902725-0.5602703     C35.5934677,31.2292938,36.3964882,32.1660423,36.25,33.1149902z"/></g></g><g><g><path d="M26.6500244,38.7550049c-3.9200439,1.6599731-6.0200195,7.789978-6.710022,10.1599731l-5.2600098-1.0499878     c0.6400146-2.7199707,4.2800293-6.3499756,7.710022-9.2199707l0.0100098-0.0100098     c0.0599976-0.0499878,0.1300049-0.0999756,0.1900024-0.1500244c0.0099487-0.0099487,0.0099487-0.0099487,0.0199585-0.0299683     c0.0100098-0.0100098,0.0200195-0.0200195,0.0300293-0.0200195c1.25-1.0299683,2.4599609-1.9599609,3.4699707-2.6900024     L26.4099731,37.875C26.4500122,38.1849976,26.5300293,38.4750366,26.6500244,38.7550049z"/><path d="M25.789978,33.5250244c-0.8399658,0.5799561-2.3899536,1.7000122-4.1499634,3.1399536     c-2.3099976-0.75-4.1900024-1.6999512-5.8599854-2.5499878l-0.6600342-0.3399658     c-1.5800171-0.7999878-2.5599976-2.3900146-2.5599976-4.1600342v-2.0599976     c0.1699829,0.1799927,0.3400269,0.3300171,0.5300293,0.4500122c0.0299683,0.039978,0.0599976,0.0599976,0.0899658,0.0700073     c0.0900269,0.0899658,0.1900024,0.1500244,0.289978,0.2199707c2.8800049,1.9200439,5.8100586,3.5599976,12.3000488,4.0800171     c-0.0500488,0.3400269-0.0500488,0.6799927,0,1.0200195L25.789978,33.5250244z"/></g></g><path d="M51.4500122,23.0050049c0,0.039978,0,0.0700073-0.0100098,0.1099854v-0.4699707   c0,0.0299683,0.0100098,0.0700073,0.0100098,0.1099854C51.460022,22.8049927,51.460022,22.875,51.4500122,23.0050049z"/><g><g><path d="M48.9000244,18.625C45.8099976,17.0150146,40.3699951,15.085022,32,15.085022S18.1900024,17.0150146,15.0900269,18.625     c-1.4800415,0.789978-2.4300537,2.2299805-2.5300293,3.8900146v0.5299683     c0.0499878,1.0400391,0.4199829,1.9700317,1.039978,2.710022c2.2000122-2.3300171,8.1600342-6.3300171,18.3699951-6.0100098     h0.0600586c10.1999512-0.3300171,16.1599731,3.6699829,18.3599854,6     c0.3399658,0.3599854,0.5999756,0.6799927,0.7600098,0.9400024c0.2799683,0.4400024,0.1699829,1.0200195-0.2400513,1.3200073     c-0.0299683,0.039978-0.0599976,0.0599976-0.0899658,0.0700073c-0.0900269,0.0899658-0.1900024,0.1500244-0.289978,0.2199707     c-2.8800049,1.9200439-5.8100586,3.5599976-12.3000488,4.0800171c0.0500488,0.3400269,0.0500488,0.6799927,0,1.0200195     l-0.0100098,0.0899658c0.8500366,0.5400391,2.5300293,1.6500244,4.2900391,3.1199951     c2.2799683-0.7399902,4.1400146-1.6900024,5.789978-2.5299683l0.5800171-0.2999878     c1.5800171-0.7999878,2.5599976-2.3900146,2.5599976-4.1600342v-2.0599976v-4.4400024v-0.4699707     C51.3699951,20.9050293,50.4199829,19.4249878,48.9000244,18.625z"/><path d="M46.5,45.0350342l-5,1c-0.1300049-2.6000366-1.1099854-6.1300049-4.1400146-7.3200073     c0.1099854-0.2600098,0.1900024-0.5500488,0.2300415-0.8400269l0.3199463-2.210022     c1.0700073,0.7200317,2.3900146,1.6800537,3.6700439,2.7700195c0.039978,0.0400391,0.0799561,0.0700073,0.1199951,0.1099854     C43.9500122,40.4949951,46.0599976,42.8549805,46.5,45.0350342z"/></g></g></g></svg>