<svg width="278" height="27" viewBox="0 0 278 27" fill="none" xmlns="http://www.w3.org/2000/svg">
<path d="M277.174 5.3101C267.992 6.05632 235.503 4.98384 226.213 5.12439C216.924 5.26495 177.871 4.53702 168.181 4.28747C158.492 4.03793 120.019 3.31837 110.449 2.79604C100.88 2.2737 10.8699 1.57264 1.23463 0.783936C0.397564 6.11111 0.231867 16.8134 0.14209 22.612C28.7675 24.0996 63.604 23.1063 108.369 24.7196C153.133 26.3329 157.284 25.8094 167.207 25.9525C177.131 26.0956 216.014 26.5465 225.887 26.1948C235.76 25.843 253.526 27.0761 276.956 26.9313C277.481 26.7192 277.697 5.31782 277.174 5.3101Z" fill="#FFE200" fill-opacity="0.3"/>
</svg>
